<?xml version="1.0" encoding="UTF-8"?><svg id="_レイヤー_2" xmlns="http://www.w3.org/2000/svg" viewBox="0 0 226.4 256.03"><g id="_レイヤー_1-2"><path d="m67.39,31.82c-1.54-.36-3.61,1.69-4.41,4.55-.77,2.92-.02,5.46,1.49,5.78.76.17,1.55-.29,2.29-1.08.74-.79,1.39-1.97,1.8-3.39.82-2.83.37-5.49-1.18-5.86Z" style="fill:#866607;"/><path d="m67.89,42.91c-1.04.25-1.75.84-1.92,1.58-.33,1.51,1.72,3.21,4.4,3.9,2.73.75,5.11.3,5.46-1.17.35-1.46-1.44-3.35-4.18-4.13-1.37-.39-2.71-.43-3.76-.18Z" style="fill:#866607;"/><path d="m78.83,26.29c-1.5-.52-3.76,1.33-4.85,4.07-1.06,2.83-.58,5.43.89,5.91.74.25,1.57-.14,2.39-.84.82-.71,1.59-1.82,2.14-3.19,1.1-2.75.95-5.4-.57-5.95Z" style="fill:#866607;"/><path d="m78.18,37.39c-1.07.13-1.83.65-2.07,1.37-.48,1.47,1.38,3.37,3.98,4.33,2.64,1.04,5.05.82,5.55-.61.51-1.38-1.1-3.5-3.74-4.53-1.32-.53-2.65-.7-3.72-.56Z" style="fill:#866607;"/><path d="m90.78,21.98c-1.44-.7-3.87.94-5.25,3.55-1.35,2.69-1.14,5.35.27,5.96,1.4.57,3.54-.92,4.92-3.54,1.37-2.63,1.51-5.23.05-5.97Z" style="fill:#866607;"/><path d="m86.79,34.1c-.63,1.42,1.03,3.48,3.52,4.72,2.52,1.32,4.93,1.31,5.58-.03.66-1.29-.74-3.61-3.25-4.9-2.51-1.31-5.24-1.25-5.84.21Z" style="fill:#866607;"/><path d="m98.34,28.04c.43-.05.89-.21,1.36-.48.94-.53,1.92-1.48,2.74-2.71,1.64-2.45,2.05-5.03.67-5.92-1.37-.89-3.95.54-5.59,2.99-1.63,2.5-1.69,5.2-.35,5.94.34.19.73.24,1.15.18Z" style="fill:#866607;"/><path d="m100.9,35.63c2.37,1.58,4.75,1.77,5.55.55.79-1.22-.36-3.66-2.73-5.23-2.36-1.54-5.08-1.79-5.83-.4-.77,1.36.66,3.55,3.01,5.08Z" style="fill:#866607;"/><path d="m114.42,22.97c1.89-2.22,2.55-4.8,1.28-5.8-1.27-1.04-3.98.11-5.86,2.4-.94,1.14-1.5,2.38-1.66,3.46-.16,1.07.07,1.95.7,2.39,1.26.9,3.66-.15,5.55-2.45Z" style="fill:#866607;"/><path d="m117.24,34.68c.91-1.15.02-3.65-2.18-5.5-2.19-1.77-4.86-2.24-5.76-.99-.45.63-.38,1.54.08,2.5.46.95,1.3,1.98,2.4,2.88,2.2,1.79,4.55,2.23,5.47,1.12Z" style="fill:#866607;"/><path d="m125.71,16.37c-1.11.34-2.34,1.08-3.39,2.13-2.11,2.09-2.72,4.68-1.56,5.71,1.17,1.07,3.66.19,5.77-1.87,2.11-2,3.03-4.52,1.87-5.63-.58-.55-1.57-.67-2.68-.35Z" style="fill:#866607;"/><path d="m128.13,34.29c1.02-1.07.4-3.62-1.6-5.7-2-2.03-4.61-2.7-5.63-1.59-1.03,1.14-.09,3.62,1.91,5.62,1,.99,2.07,1.67,3.03,1.95.95.3,1.78.26,2.3-.28Z" style="fill:#866607;"/><path d="m132.69,24.25c.52.58,1.43.72,2.49.48,1.06-.24,2.28-.88,3.44-1.75,2.3-1.79,3.48-4.2,2.43-5.42-.52-.61-1.5-.8-2.63-.62-1.14.19-2.44.84-3.59,1.77-2.32,1.89-3.18,4.37-2.14,5.54Z" style="fill:#866607;"/><path d="m139,35.01c1.13-.97.76-3.56-1.01-5.82-.89-1.15-1.96-1.92-2.96-2.3-1-.38-1.91-.36-2.48.14-1.14,1.01-.46,3.6,1.33,5.77.89,1.09,1.9,1.83,2.81,2.25.91.42,1.75.44,2.32-.04Z" style="fill:#866607;"/><path d="m150.59,24.84c2.47-1.56,3.89-3.85,2.98-5.16-.92-1.29-3.81-1.19-6.31.51-2.5,1.66-3.61,4.04-2.69,5.3.93,1.27,3.56.85,6.03-.66Z" style="fill:#866607;"/><path d="m149.75,36.83c1.22-.85,1.12-3.47-.42-5.88-1.53-2.47-3.96-3.58-5.19-2.7-1.24.9-.82,3.54.73,5.86,1.57,2.28,3.64,3.59,4.88,2.72Z" style="fill:#866607;"/><path d="m158.6,28.89c1.09-.03,2.39-.32,3.71-.98,2.62-1.31,4.27-3.45,3.49-4.84-.39-.69-1.31-1.07-2.46-1.11-1.15-.04-2.53.25-3.87.98-2.66,1.41-4.01,3.67-3.22,5.01.4.67,1.26.98,2.35.94Z" style="fill:#866607;"/><path d="m157.97,39.33c.81.59,1.63.76,2.29.4,1.31-.73,1.47-3.34.18-5.89-.65-1.27-1.52-2.31-2.42-2.88-.9-.56-1.8-.72-2.47-.33-1.33.77-1.18,3.44.13,5.9.66,1.21,1.47,2.22,2.29,2.8Z" style="fill:#866607;"/><path d="m177.63,27.68c-.64-1.45-3.52-1.87-6.29-.78-2.79,1.14-4.37,3.26-3.72,4.66.33.71,1.16,1.08,2.24,1.18,1.07.12,2.41-.08,3.79-.6,2.75-1.06,4.6-2.99,3.97-4.47Z" style="fill:#866607;"/><path d="m169.07,34.75c-.83-.67-1.72-.89-2.42-.58-1.4.64-1.52,3.3-.47,5.87,1.04,2.62,2.84,4.26,4.22,3.65,1.37-.58,1.81-3.18.78-5.83-.51-1.33-1.29-2.42-2.12-3.11Z" style="fill:#866607;"/><path d="m188.93,33.5c-.46-1.54-3.32-2.19-6.17-1.43-2.89.84-4.69,2.81-4.18,4.26.54,1.42,3.09,1.97,5.94,1.2,1.43-.39,2.65-1.01,3.44-1.71.8-.71,1.19-1.53.96-2.31Z" style="fill:#866607;"/><path d="m177.34,38.82c-1.46.51-1.85,3.12-1.07,5.79.75,2.75,2.4,4.49,3.82,4.07.7-.21,1.23-.95,1.5-1.99.27-1.05.26-2.38-.12-3.74-.75-2.73-2.65-4.68-4.13-4.14Z" style="fill:#866607;"/><path d="m199.56,40.45c-.27-1.63-3.08-2.52-5.99-2.05-2.93.49-4.95,2.31-4.58,3.78.38,1.48,2.86,2.3,5.79,1.8,2.9-.46,5.08-1.93,4.79-3.53Z" style="fill:#866607;"/><path d="m187.49,44.54c-1.52.37-2.14,2.89-1.67,5.67.24,1.4.72,2.58,1.33,3.36.3.39.64.69.99.87.34.19.7.27,1.06.2,1.44-.26,2.43-2.75,1.97-5.57-.48-2.77-2.17-4.92-3.68-4.54Z" style="fill:#866607;"/><path d="m198.72,49.09c.19,1.55,2.6,2.58,5.57,2.39,2.91-.12,5.25-1.39,5.11-3.01-.1-1.64-2.79-2.85-5.75-2.66-2.95.16-5.16,1.77-4.94,3.28Z" style="fill:#866607;"/><path d="m197,51.27c-1.55.22-2.43,2.65-2.26,5.48.19,2.82,1.46,4.85,2.9,4.76,1.47-.12,2.69-2.47,2.55-5.35-.19-2.81-1.68-5.08-3.19-4.9Z" style="fill:#866607;"/><path d="m207.7,56.97c.02,1.58,2.33,2.82,5.3,2.95,2.89.19,5.37-.85,5.39-2.46,0-.8-.56-1.62-1.58-2.2-1.01-.58-2.38-.98-3.87-1.04-2.96-.13-5.28,1.2-5.24,2.74Z" style="fill:#866607;"/><path d="m205.76,58.96c-1.54.03-2.7,2.4-2.82,5.22-.05,1.41.19,2.66.63,3.55.44.88,1.02,1.49,1.77,1.49,1.48.03,2.92-2.17,3.09-5.06.11-2.82-1.16-5.21-2.67-5.2Z" style="fill:#866607;"/><path d="m225.05,64.96c-.94-.68-2.27-1.22-3.74-1.43-2.95-.42-5.36.63-5.5,2.19-.15,1.57,2.04,3.04,4.97,3.48,2.86.48,5.43-.3,5.62-1.9.09-.79-.4-1.66-1.34-2.35Z" style="fill:#866607;"/><path d="m213.67,67.52c-1.51-.15-2.95,2.11-3.33,4.91-.19,1.4-.08,2.66.27,3.59.34.94.86,1.59,1.61,1.67,1.47.18,3.13-1.86,3.59-4.72.41-2.81-.62-5.3-2.13-5.45Z" style="fill:#866607;"/><path d="m49.06,65.89c-1.58-.2-3.33,2.05-3.76,4.99-.45,2.92.57,5.4,2.1,5.55,1.56.17,3.07-2.02,3.56-4.9.48-2.88-.32-5.45-1.89-5.64Z" style="fill:#866607;"/><path d="m53.97,82.01c2.81.38,5.19-.4,5.39-1.9.2-1.5-1.85-3.14-4.7-3.58-2.85-.46-5.35.55-5.54,2.07-.17,1.55,2.02,3,4.85,3.41Z" style="fill:#866607;"/><path d="m60.94,64.7c.71-2.84.14-5.47-1.42-5.78-1.56-.32-3.52,1.8-4.18,4.7-.69,2.88.16,5.44,1.67,5.7,1.54.28,3.21-1.79,3.93-4.62Z" style="fill:#866607;"/><path d="m63.15,75.38c2.76.6,5.17.02,5.48-1.45.31-1.47-1.59-3.28-4.39-3.95-2.8-.68-5.38.13-5.67,1.63-.28,1.54,1.8,3.13,4.57,3.76Z" style="fill:#866607;"/><path d="m66.01,57.18c-.95,2.82-.32,5.44,1.16,5.82.75.19,1.6-.16,2.37-.94.39-.39.75-.87,1.09-1.44.34-.55.64-1.19.89-1.88.97-2.77.67-5.44-.87-5.9-1.53-.45-3.71,1.48-4.63,4.33Z" style="fill:#866607;"/><path d="m72.76,69.57c2.68.84,5.11.52,5.54-.92.44-1.43-1.27-3.42-3.99-4.34-.68-.23-1.35-.38-2-.44-.63-.05-1.23-.01-1.76.09-1.05.22-1.82.71-2.03,1.46-.4,1.51,1.53,3.27,4.22,4.15Z" style="fill:#866607;"/><path d="m82.67,53.84c1.26-2.68,1.28-5.31-.22-5.96-.75-.32-1.71-.03-2.65.66-.95.68-1.85,1.81-2.46,3.18-1.24,2.73-.89,5.36.56,5.91,1.47.57,3.49-1.16,4.77-3.79Z" style="fill:#866607;"/><path d="m82.79,64.74c1.28.56,2.52.81,3.53.78,1-.04,1.74-.43,2.03-1.1.59-1.33-.9-3.56-3.49-4.75-2.6-1.23-5.28-.91-5.85.51-.56,1.44,1.21,3.41,3.78,4.56Z" style="fill:#866607;"/><path d="m89.15,53.44c.7.36,1.6.17,2.52-.43.93-.57,1.88-1.54,2.67-2.8,1.58-2.48,1.93-5.12.51-5.93-1.42-.83-4.02.64-5.58,3.21-1.55,2.6-1.51,5.23-.12,5.95Z" style="fill:#866607;"/><path d="m93.19,61.05c1.2.68,2.4,1.14,3.38,1.19.98.05,1.76-.2,2.13-.83.73-1.27-.46-3.63-2.89-5.15-1.21-.74-2.49-1.14-3.57-1.17-1.07,0-1.92.33-2.28,1.01-.72,1.35.82,3.54,3.22,4.95Z" style="fill:#866607;"/><path d="m100.84,50.62c1.29.85,3.67-.27,5.57-2.55,1.9-2.23,2.59-4.85,1.28-5.82-.65-.48-1.67-.47-2.77-.04-1.09.46-2.26,1.33-3.21,2.5-1.88,2.39-2.15,5.03-.87,5.9Z" style="fill:#866607;"/><path d="m107.09,54.27c-2.2-1.8-4.9-2.2-5.77-.91-.88,1.27.38,3.61,2.56,5.3,1.1.88,2.23,1.44,3.18,1.62.96.21,1.76.06,2.21-.53.88-1.18.02-3.64-2.19-5.48Z" style="fill:#866607;"/><path d="m114.45,43.61c-1.09,1.02-1.8,2.21-2.08,3.26-.28,1.04-.15,1.94.43,2.46.58.5,1.5.59,2.55.25.52-.16,1.08-.42,1.64-.77.56-.33,1.13-.74,1.67-1.24,2.18-1.99,3.22-4.48,2.05-5.61-1.16-1.12-4.08-.45-6.26,1.66Z" style="fill:#866607;"/><path d="m116.96,52.46c-.53-.33-1.08-.58-1.59-.73-1.03-.29-1.94-.22-2.46.37-1.04,1.17-.1,3.59,1.83,5.62,1.94,1.98,4.15,2.84,5.19,1.77,1.03-1.05.51-3.62-1.43-5.71-.48-.52-1.01-.97-1.55-1.32Z" style="fill:#866607;"/><path d="m130.97,42.64c-.59.07-1.22.23-1.85.48-.64.27-1.28.63-1.89,1.08-2.44,1.78-3.4,4.24-2.4,5.44,1.01,1.21,3.61.69,6.04-.97,2.43-1.72,3.76-3.97,2.77-5.29-.49-.66-1.49-.87-2.66-.74Z" style="fill:#866607;"/><path d="m124.57,52.41c-1.18.97-.59,3.58,1.07,5.82.42.56.86,1.04,1.31,1.43.45.42.9.74,1.34.97.88.46,1.7.48,2.28.05,1.16-.86.98-3.55-.67-5.85-1.64-2.36-4.15-3.38-5.32-2.42Z" style="fill:#866607;"/><path d="m146.19,46.41c-.4-.71-1.36-1.05-2.53-1.06-1.17,0-2.56.33-3.89,1.08-2.64,1.47-3.91,3.78-3.07,5.1.42.66,1.3.95,2.39.89,1.09-.05,2.4-.4,3.71-1.1,2.61-1.4,4.2-3.49,3.38-4.91Z" style="fill:#866607;"/><path d="m138.57,54.52c-.92-.54-1.83-.67-2.48-.26-1.3.81-1.05,3.48.33,5.9.69,1.19,1.52,2.17,2.35,2.72.82.55,1.64.69,2.28.33,1.27-.72,1.4-3.4.04-5.9-.68-1.24-1.6-2.25-2.51-2.8Z" style="fill:#866607;"/><path d="m158.21,50.83c-.32-.74-1.22-1.18-2.38-1.31-1.15-.13-2.56.05-3.96.65-2.78,1.16-4.31,3.31-3.63,4.71.34.7,1.18,1.09,2.27,1.16,1.09.07,2.43-.12,3.8-.68,2.75-1.11,4.54-3.02,3.89-4.52Z" style="fill:#866607;"/><path d="m149.75,58.05c-.85-.64-1.74-.88-2.43-.55-1.39.65-1.45,3.33-.35,5.9.56,1.27,1.29,2.33,2.05,2.98.76.65,1.57.87,2.25.59,1.35-.57,1.76-3.23.67-5.85-.54-1.31-1.34-2.42-2.19-3.07Z" style="fill:#866607;"/><path d="m94.89,243.16c-22.63-7.23-34.68-13.35-51.93-31.9-7.07-7.6-11.53-15.73-15.07-25.18-3.52-9.37-5.48-18.91-5.62-26.02-.09-4.63.2-9.54.2-9.54,3.33-23.81,11.69-42.76,30.82-57.44,7.42-5.69,14.9-10.17,24.31-13.7,5.66-2.13,11.64-3.52,17.21-4.51,1.88-.34,1.3-1.18.14-1.21-3.57.12-5.8.44-9.32,1.11-15.2,2.9-27.93,9.42-40.33,19.02-14.64,11.34-25.12,25.1-33.06,41.73,1.77-5.61,3.15-11.25,5.7-16.62,6.72-14.13,15.16-26.17,26.21-37.28,1.12-1.66-.59-3.24-1.68-2.55-15.66,14.75-25.93,32.41-32.4,52.86,1.43-20.07,6.42-37.88,17.98-54.73,8.63-12.58,20.78-22.11,33.58-30.46,1.13-1.39.44-2.78-1-2.88-24.73,14.55-41.5,36.11-50.13,63.39,8.62-34.63,29.57-64.53,59.32-84.19,7.62-5.03,13.84-8.13,20.35-10.9,5.3-2.25,9.93-3.6,16.2-5.23,9.6-2.49,12.1-2.58,21.19-4.06,1.89-.31,6.39-.79,8.44-1.02,3.55-.39,2.33-1.75.28-1.85-9.09,0-14.1.12-19.75.83-15.3,1.95-23.21,3.85-34.22,8.25-8.4,3.36-16.68,7.3-26.33,14.39C8.57,58.27-10.99,112.93,6.09,170.63c4.02,13.6,13.8,33.57,24.78,44.92,18.58,20.94,43.13,35.85,71.13,40.47,3.37.32,6.63-4.79,3.85-8.13-2.25-2.69-8.59-4.08-10.96-4.73Z" style="fill:#866607;"/><path d="m162.04,59.45c-2.79-1.54-5.71-1.59-6.53-.1-.82,1.49.77,3.94,3.55,5.48,2.79,1.54,5.71,1.59,6.53.1.82-1.49-.77-3.94-3.55-5.48Z" style="fill:#866607;"/><path d="m218.91,71.47c-1.42.93-1.15,3.85.61,6.51,1.75,2.66,4.32,4.06,5.74,3.12,1.42-.93,1.15-3.85-.61-6.51-1.75-2.66-4.32-4.06-5.74-3.12Z" style="fill:#866607;"/><path d="m142.14,124.06c-15.91,11.06-24.01,5.11-24.01,47.27,0,45.45,20.09,66.79,42.32,66.79,26.29,0,42.27-26.79,44.38-68.36,2.14-42.03-17.38-76.72-44.38-76.06-11.4.28-5.15,21.22-18.3,30.37Z" style="fill:#fff; stroke:#866607; stroke-linecap:round; stroke-linejoin:round; stroke-width:4.85px;"/><path d="m167.71,134.56c.04.08.08.08.13,0,.34,0,.67.08.97.21.42.13.84.29,1.22.55.34.13.63.29.97.46.17.17.42.29.67.34,1.05.84,2.02,1.76,2.9,2.77.13.25.29.55.38.84.55.34.8.8.8,1.34.17.25.25.46.34.67.04.21.04.38.04.63.13.29.17.63.17.97.08.21.04.42-.04.55-.08-.04-.21,0-.29.08-.29.17-.59.29-.88.29-.17,0-.29.13-.38.25-.13.42-.25.84-.34,1.26-.17.34-.29.67-.38.97h-.08s-.04,0,0-.04c-.21-.08-.38-.04-.5.08-.08.13-.21.21-.38.25-.04.04-.08,0-.08-.08-.13,0-.29.04-.38.13-.25,0-.42,0-.59.04-.17.13-.25.25-.29.38-.08.08-.13.17-.21.25-.04.08-.08.08-.13.08v-.04l-.38.13c-.17.17-.34.29-.5.29-.13.08-.25.13-.46.04-.17,0-.34-.04-.5-.17-.21-.04-.38-.08-.55-.08-.17-.08-.34-.13-.5-.13-.21,0-.38.04-.55.13-.13-.04-.25-.04-.34,0-.08,0-.13.04-.13.08-.08-.08-.21-.08-.29-.08-.13.08-.21.17-.25.25-.17-.04-.29-.04-.38.04-.08,0-.08.04-.08.08.29.17.5.38.71.67,0,.17-.04.29-.17.34-.13.08-.17.21-.21.29-.04,0-.08.04-.08.04.08.13.17.21.29.25.08.04.17.08.29.08.04.04.13.04.21,0,.21-.08.5-.17.8-.25.04-.08.13-.13.25-.13.13-.08.25-.21.42-.34.21-.08.46-.13.67-.04.17.08.34.13.46.13.13-.08.25-.08.38-.04.34.08.67.13,1.01.17.08,0,.13,0,.13.08.59.04,1.13.29,1.64.63.46.25.76.63.84,1.13l-.08.08c-.21.17-.38.29-.5.42-.25.08-.46.17-.63.21s-.25.13-.29.17c0,.17-.08.29-.17.42-.04.08-.13.17-.25.17.04.13.04.25,0,.34-.08.08-.17.08-.25.08-.08-.04-.17-.08-.29-.08-.21-.08-.42-.13-.55-.04-.21.04-.42.04-.59,0-.04-.04-.13-.13-.17-.13-.25.13-.5.25-.8.34-.29.13-.63.17-.92.17-.08.08-.17.17-.29.17-.25.04-.42.13-.59.29-.04-.04-.13,0-.13.04-.21.04-.38.04-.55,0-.04-.08-.13-.17-.17-.29-.08.21-.13.34-.17.46.21.25.29.5.29.8-.13.08-.17.17-.21.25.04.08.13.17.21.17.04.08.13.13.25.13v-.08c.08.13.21.17.42.13.46-.25.92-.25,1.39,0,.08.04.21.08.34.13.42.17.76.46.97.88.67.34,1.26.76,1.76,1.26.08.21.17.42.29.59,0,.17-.04.34-.13.42-.08.08-.13.13-.13.13-.13.17-.21.34-.25.5-.17.04-.29.08-.46.21-.08.08-.21.13-.29.17-.25.08-.42.08-.59.08-.04-.04-.13-.08-.17-.08-.04.04-.13.08-.25.08-.21-.04-.42,0-.63.08-.21.04-.46.04-.67-.04-.04,0-.13.04-.17.04-.08,0-.13,0-.08.04-.13,0-.17,0-.17.04-.04,0-.08,0-.13-.04.04-.04.08-.04.13-.04-.17,0-.29,0-.38.08-.21.13-.42.25-.63.25-.38.29-.76.59-1.05.97,0,.55,0,1.05-.04,1.55.5.13,1.01.21,1.51.25l.04-.04h1.01c.17.04.34.08.55.13.17.04.34.04.5-.04,0,.08.04.08.08,0,.25,0,.5-.04.8-.04v.04s0,0,.08,0c.08-.04.17-.04.29,0,.04.08.08.08.17.08v-.08s.08.04.13.04c0,0-.04.04,0,.04,0,.04.04.04.08.04.13-.08.25-.08.42,0-.04,0-.13.04-.17.04.17,0,.34,0,.46.04h1.01c.08,0,.17.04.25.04.55-.08,1.13-.04,1.68.08.17,0,.34-.04.46-.17.21-.04.42-.13.67-.25.21.17.46.17.71.04.04,0,.13-.04.21-.08.13.04.29,0,.5-.13-.04.17.04.29.21.34.34,0,.67.13,1.01.38.13.04.21.17.34.25.71.38,1.34.88,1.89,1.51.08.17.21.34.29.5,0,.29-.13.55-.38.76h-.13c-.13.25-.34.38-.55.46-.08-.08-.17-.13-.25-.08-.08,0-.21.04-.29.04-.13-.04-.25-.08-.34-.13-.25,0-.5-.04-.76-.04-.04.04-.04.08-.04.13-.04-.08-.08-.13-.17-.17-.17.04-.29.04-.46.04-.34-.17-.71-.34-1.13-.5-.34-.29-.76-.46-1.22-.59-.21-.08-.38-.13-.55-.13-.08-.04-.21-.08-.29-.08h-.46c-.08,0-.21-.04-.29-.08-.46,0-.92-.04-1.34-.17-.25-.25-.42-.34-.59-.17-.21.13-.46.17-.67.17-.17,0-.29.04-.42.04-.25.04-.5.04-.76,0-.34-.04-.67-.04-1.01-.04-.29-.17-.63-.29-.92-.38-.13.04-.21.04-.34,0-.5-.08-1.01-.13-1.51-.21-.13-.08-.21-.13-.34-.08-.29.17-.59.25-.88.25-.21.17-.42.25-.63.25-.17.13-.29.21-.46.21-.38,0-.71.04-.97.21-.29-.04-.5,0-.67.08-.17.08-.29.13-.46.13-.25.17-.46.29-.67.34-.17-.04-.34-.04-.5-.04-.17.13-.34.17-.46.21-.29.21-.59.34-.92.38-.04,0-.21.04-.59,0-.38,0-.84.13-1.47.42-.46.13-.97.25-1.47.25-.34.08-.63.21-.84.34-.17.08-.29.17-.46.25-.13.04-.29.08-.42.13l-.25.13c-.25.04-.5.13-.71.21-.17.04-.34.04-.5.04-.25-.08-.46-.17-.59-.29-.25.21-.5.34-.76.34-.25-.21-.46-.38-.67-.5-.34-.29-.67-.55-1.01-.76-.17.04-.25,0-.25-.13.04-.25.13-.46.21-.71.04-.08.08-.21.13-.34.08-.17.17-.34.34-.46,0-.08.04-.17.13-.21h.13c0-.08.04-.08.13-.04s.21.08.42.04t-.04,0c.08,0,.17-.04.25-.08.08,0,.13-.04.13-.13.17,0,.25-.08.29-.21.04.08.13.08.29.04.17,0,.34-.04.5-.04s.34-.04.5-.08c.08-.08.21-.13.29-.17.13.08.29.08.46.08.42-.17.88-.34,1.34-.46.63-.25,1.3-.46,1.97-.71,1.13-.29,2.18-.71,3.19-1.26.17-.21.34-.46.5-.71v-.04c.08-.08.17-.21.21-.29-.17-.25-.38-.42-.63-.55-.25,0-.42,0-.63-.04-.42,0-.88-.04-1.3-.17-.21.08-.42.04-.59-.08-.13-.08-.25-.13-.42-.13-.17-.13-.38-.21-.59-.25-.17-.17-.38-.25-.63-.25-.04-.08-.04-.13-.08-.21-.04,0-.04.04-.04.08,0-.17-.04-.29-.08-.5.04.04.13,0,.21-.13t-.04-.04h.04v-.17s.08-.04.08-.17c.04-.08.13-.13.25-.13.08-.17.21-.34.42-.42,0-.04.08-.04.17,0h.08c.34-.29.67-.46,1.09-.55.29-.13.59-.21.84-.25.67-.17,1.3-.42,1.93-.71v-1.47h-.17c-.34.08-.67.17-1.01.17-.25.13-.5.21-.84.21-.5.04-.97.21-1.43.42-.34.25-.67.38-1.05.38-.25.25-.55.5-.88.67l-.25.25c-.13.08-.25.17-.25.29-.13.21-.17.38-.13.59,0,.25,0,.5-.04.71-.04.34-.04.67.04.97.04.17,0,.25-.13.29-.13.13-.17.21-.13.29-.08.08-.17.04-.25-.04-.13.08-.13.21-.08.34-.04.08-.04.13.08.17l-.08.08c.04.13.08.21.08.34-.13.04-.13.08,0,.13-.13.17-.21.17-.34.08h-.04s-.04.08-.04.13c.08.08.13.17.17.25-.04.17-.08.25-.21.29-.17,0-.29-.04-.46-.17-.38-.13-.67-.38-.97-.67-.42-.17-.76-.46-1.05-.88-.17-.08-.34-.17-.5-.25-.29-.08-.46-.25-.59-.5-.42-.29-.8-.71-1.13-1.18v-.38s.08-.04.08-.04c-.04,0-.04-.04-.04-.04l.13-.13s-.04-.08-.08-.08c.04,0,.04.04.08.04.08-.13.21-.25.42-.38.04-.08.04-.17,0-.21-.04-.71,0-1.43.13-2.18.04-.08.08-.21.08-.29.08-.88.29-1.72.63-2.56,0-.08.04-.17.17-.29,0-.59.21-1.13.63-1.6.21-.38.42-.76.59-1.13.21-.71.5-1.3.97-1.81.08-.08.13-.17.21-.29.04-.04.13-.08.21-.13.08,0,.13-.04.13-.13.21.21.46.29.76.34.13.13.21.29.25.46,0,.17.04.34.08.5.21.34.34.71.42,1.13.08.17.13.29.13.38.13.21.21.42.25.67,0,.38-.04.76-.13,1.13.08.13.08.25.08.34.04.5,0,.97-.13,1.43-.08.13-.17.25-.17.38.38-.08.76-.17,1.22-.29.29,0,.59-.04.88-.13v-.04c.17.08.34.04.46-.04.13,0,.25-.04.38-.08.08-.13.21-.25.38-.42.08-.13.25-.25.42-.38.55-.13,1.05-.17,1.6-.21.08-.04.13-.08.13-.21.17,0,.29,0,.42-.08.21-.08.38-.21.5-.38,0-.21.04-.42.08-.63.04-.34.08-.67.08-1.05-.08-.08-.08-.17-.08-.25-.13-.29-.13-.55.04-.84-.04-.04-.04-.13-.04-.17-.38-.17-.76-.29-1.13-.42-.21,0-.42-.17-.55-.42-.08-.25-.21-.46-.34-.71,0-.08.04-.17.13-.21t-.04-.04c.13-.13.25-.29.38-.46.29-.29.5-.63.67-1.09.08-.17.17-.38.21-.63-.04-.04-.08-.04-.13,0-.25,0-.46,0-.67-.08-.13,0-.25-.04-.34-.04-.29-.08-.59-.13-.92-.13-.25-.13-.5-.29-.71-.46h-.08c-.13-.04-.17-.17-.17-.34-.04-.04-.04-.08-.08-.13v.04s-.04,0-.04-.04c.08.04.13,0,.17-.04t-.04-.13c.08,0,.17-.04.25-.13t-.04-.04c0-.08.08-.17.17-.25.34-.29.67-.55,1.09-.8.46-.34.97-.67,1.43-1.01.29-.29.67-.5,1.18-.55.17-.21.38-.29.67-.29.21,0,.42.04.63.13.08-.08.17-.17.25-.21.04-.04.08-.13.17-.21.42-.04.84.08,1.22.42.17.13.29.21.38.38.46.38.84.84,1.13,1.34.04.13.08.21.04.34,0,.08-.04.17-.08.29t-.04-.04c-.04.29-.13.59-.21.84h-.04s-.13.04-.21.04c-.17.29-.42.46-.71.55-.21.08-.38.13-.59.17-.29.08-.59.21-.84.38-.21.08-.42.17-.67.17-.13.13-.21.25-.25.38-.17.17-.38.38-.55.59-.13.13-.21.25-.29.42h.17c.13-.04.29-.04.46-.04.76-.25,1.47-.5,2.18-.76.67-.08,1.26-.38,1.76-.92.5-.88.97-1.81,1.43-2.77-.04-.59.04-1.18.25-1.76v-.08c.29-.17.42-.42.42-.71-.04-.17-.04-.34-.04-.5-.46-.42-.88-.8-1.26-1.13-.08.04-.17.08-.21.04-.08-.04-.08-.08-.08-.08-.04.04-.08.04-.08.04h-.08v-.04c-.25.08-.5.13-.76.17-.21.08-.42.13-.55.17-.63.17-1.18.38-1.68.71-.08.08-.21.17-.34.21,0-.04.04-.13.08-.17-.21.13-.42.17-.63.13-.29.13-.59.21-.84.29-.63.38-1.3.67-1.97.84-.13-.13-.21-.29-.21-.46-.13.08-.21.13-.34.04-.13.04-.17.08-.21.08-.04.08-.04.17-.08.21s-.08,0-.04-.08c-.04.04-.08.08-.17.08-.08-.13-.08-.25-.08-.38.08-.13.17-.29.29-.38.13-.08.21-.21.29-.34.46-.46,1.01-.8,1.64-.97.71-.46,1.43-1.01,2.14-1.55.59-.46,1.22-.92,1.89-1.39.63-.17,1.26-.17,1.93,0l.17.04s.08,0,.08-.04Zm-9.62-.17c.08.13.17.21.29.29,0,.29,0,.59.04.92-.08.04-.08.08-.08.08-.13.04-.21.13-.25.17.08.13.17.21.21.25-.13.17-.25.25-.34.38-.25.29-.46.63-.63.97-.21.29-.46.5-.71.67-.21.08-.34.21-.38.42v.46c.42.25.59.63.55,1.09-.08.17-.13.29-.13.46-.13.34-.25.63-.38.97.04.13.04.29-.04.42,0,.25,0,.46-.04.63.04.42.13.84.34,1.22.29.29.55.63.71,1.05.08.29.17.59.29.88.55.63,1.05,1.3,1.51,1.93,0,.13.08.21.17.21.08.21.25.29.42.25l.38-.25s0,.04.04.04c-.08.21-.17.34-.29.38.34.38.63.8.8,1.3,0,.25.04.5.08.76.04.21.04.38.04.59-.29-.08-.59-.21-.84-.42-.59-.46-1.22-.88-1.85-1.26-.25-.29-.55-.5-.88-.67-.46-.29-.8-.67-1.05-1.18-.13-.21-.29-.34-.5-.38-.59-.5-.97-1.22-1.13-2.06-.08-.25-.21-.55-.46-.76-.04-.17-.13-.34-.21-.46-.13-.25-.13-.5-.08-.8.04-.17.08-.38.17-.59.04-.29.13-.59.25-.88l.04-.04c.04-.38.08-.76.17-1.09.04-.13.08-.21.08-.34.08-.21.08-.46,0-.71-.13-.21-.13-.46-.08-.71.04-.21.17-.42.29-.63.13-.42.29-.8.59-1.18-.08-.17-.21-.34-.34-.55-.04-.13-.08-.29-.08-.5.08-.04.08-.21.08-.38.17-.21.34-.42.46-.71.04-.04.08-.13.17-.17,0-.08.04-.17.13-.21s.17-.08.25-.17v.08c.08-.04.13-.13.17-.25.13,0,.29-.04.42-.08.17.13.38.25.55.42.38-.13.71-.08,1.09.13Z" style="fill:#866607;"/><path d="m150.27,186.1c-.25.38-.42.84-.5,1.26-.08.5-.04,1.01.13,1.51v.38c.08.08.21.13.29.13.17-.17.34-.25.55-.29.38.04.76-.04,1.13-.21.21.04.42.08.59.13.67.21,1.22.59,1.64,1.13.55.42.8.97.71,1.55-.17.25-.38.5-.59.71s-.38.42-.55.63c-.38.25-.63.59-.71.97-.13.29-.34.5-.63.55-.34.08-.63.21-.88.42-.13.04-.17.08-.21.13-.13.21-.25.38-.38.55-.17.29-.34.55-.46.84-.17.25-.25.5-.34.76-.17.25-.29.5-.29.71-.08.04-.13.13-.13.25-.13.25-.21.5-.25.71-.08.04-.13,0-.13-.08.13-.84.29-1.68.5-2.56,0-.21.04-.38.13-.59,0-.04,0-.08-.04-.17-.08.08-.13.04-.13-.04-.38.04-.67-.08-.88-.34-.63-.67-1.26-1.3-1.89-1.93-.04-.08-.08-.13-.13-.21-.08-.13-.08-.25.08-.38-.21-.17-.38-.34-.5-.59,0-.08.04-.13.17-.21t.04,0v-.38c.08,0,.13.04.17.04v-.25c.08,0,.13.04.17.04.04-.04.04-.08.04-.13.04,0,.08.04.13.04.38-.46.67-1.01.92-1.55.13-.21.21-.42.29-.67.21-.34.42-.71.63-1.05,0-.08,0-.13.04-.21.42-.63.84-1.22,1.22-1.85.08-.21.21-.38.34-.55h-.04v-.08h.04c-.04.25-.13.5-.21.71-.08,0-.08.08-.08.17Zm24.28-10.25c.17.04.38.08.55.13.59.34,1.09.76,1.51,1.3.08.08.13.17.21.25.46.08.8.29,1.13.67.13.21.17.42.17.63-.08.17-.17.34-.25.46-.08.08-.17.17-.25.21-.13.08-.21.13-.34.21-.17.08-.29.17-.42.25-.13.04-.25.08-.42.13l-.08.08v-.04c-.04.08-.13.13-.21.13t-.04,0c-.08.04-.13.08-.13.13h.04c-.08.08-.13.13-.21.17-.04.08-.08.13-.17.17-.04,0-.04.04-.08.04s-.04.04-.08.04c.04.04.08.04.13,0v.04c-.04.08-.08.13-.13.21-.13.21-.25.38-.5.38-.17.13-.34.21-.5.29h-.13c-.34.17-.67.29-.97.42-.13.04-.25.04-.34-.04-.29,0-.55.04-.8.17-.13.04-.21.04-.29,0-.08.08-.17.08-.25.04s-.13-.04-.21-.08c0,.04-.04.04-.08,0,.08-.04.08-.13,0-.17-.34.08-.63.25-.88.5-.42.25-.84.5-1.22.67v-.04c-.42.13-.76.25-1.05.42.21.17.46.29.71.34.42.25.8.55,1.13.84.04.08.13.08.21.04.04,0,.08-.08.13-.17.13.04.21.04.38.04-.04,0-.04-.04,0-.08.34.04.67.08,1.01.17,1.3.59,2.56,1.3,3.78,2.1.21.21.46.42.71.59.29.29.63.63.97.92.42.46.76.97,1.01,1.51.17.29.34.63.42.97.04.21.08.38.13.55.13.42.13.84.08,1.26-.04.04-.08.13-.04.17-.13.21-.29.38-.5.46-.08.08-.13.21-.08.29,0,.04.04.04.04.04v.71s-.04.38-.08,1.05c0,.71-.04,1.68-.04,2.98,0,0-.04.13-.04.38v1.05c-.04.17-.08.29-.08.46-.08.25-.13.55-.13.8v.13c0,.55-.04,1.09-.04,1.6.17.59.21,1.13.13,1.68v.88c-.04.08-.04.17.04.25.04.63.04,1.3,0,1.93-.04.17-.13.29-.25.34-.08,0-.13-.04-.04-.17h-.08c-.04.08-.08.13-.08.13-.04,0-.04-.04-.04-.08-.13.17-.25.25-.38.34,0,.21.04.38.08.59-.08.17-.08.34,0,.5-.08.17-.17.38-.25.55-.08.04-.17.08-.21.17,0,.13-.04.21-.13.25-.17.08-.29.17-.34.29-.38.04-.55.21-.59.5-.08.34-.13.67-.17.97-.04.04-.08.13-.13.17-.08,0-.13,0-.17-.04-.04.04-.04.08-.04.13-.08-.13-.17-.17-.34-.17-.17-.08-.29-.08-.46,0v.17c-.17-.13-.29-.08-.29.04-.08,0-.17,0-.25.04-.04.08-.04.17-.08.25-.04.04-.08.08-.04.13-.04-.04-.13-.04-.17.04-.04.04-.13.04-.17.04-.17-.21-.38-.42-.55-.67-.38-.46-.76-.88-1.13-1.3-.46-.63-.92-1.26-1.39-1.85-.42-.38-.97-.55-1.6-.42-.25-.04-.46,0-.67.13-.17-.04-.34,0-.42.08-.04.21-.13.34-.21.42v.04c-.34.21-.63.38-1.01.46-.21.08-.42.13-.59.13-.17.04-.29.08-.38.04-.42-.17-.8-.29-1.22-.46-.38-.29-.76-.63-1.09-1.01-.34-.29-.67-.63-.88-1.05-.04-.13-.04-.25.04-.42-.04-.04,0-.13.04-.17s.08-.04.13-.08c.08-.13.08-.29,0-.46-.08-.13-.13-.29-.13-.46.04.04.08,0,.13-.04l.04-.04c-.08-.04-.08-.08-.04-.17l.04-.04v.17h.04c.04-.42.21-.76.55-1.05.04-.08.04-.17.08-.25.13,0,.17-.08.21-.25-.17-.04-.34-.13-.5-.13-.13-.08-.25-.21-.34-.34-.46-.42-.88-.88-1.3-1.34-.08-.42.04-.71.34-1.01.17-.17.42-.38.67-.59,0-.08.08-.17.21-.21.42-.42.76-.88,1.13-1.43v-.04c-.17.08-.29.13-.42.21-.08.04-.13.04-.13-.04-.04.04-.08.04-.08.04-.04,0-.04-.04-.04-.08-.25.08-.55.13-.76.21-.08.08-.13.17-.13.21h-.17v.04c-.21.08-.34.04-.38-.17-.21-.04-.38-.08-.55-.17-.08,0-.17.04-.21.13-.13,0-.25-.04-.34-.04-.42-.38-.71-.84-.84-1.39-.04-.17,0-.34.08-.46.08-.08.13-.17.13-.34-.04.08,0,.08.04.04l.04-.04s-.04,0-.04-.04c0,.08.04.08.08.04.04-.08.04-.17,0-.25-.17.25-.29.5-.38.76-.08.04-.13,0-.17-.08,0-.34.04-.67.25-1.01.34-.59.67-1.18,1.05-1.76-.38-.63-.55-1.26-.46-2.02t-.04-.08c-.08.21-.17.42-.29.59-.59.25-1.05.63-1.26,1.18.08.29.17.59.25.84-.13.21-.17.42-.08.59-.08.17-.17.29-.25.38,0,.29-.08.55-.29.71-.04.04-.04.08-.04.08t.04.04c-.04.13-.08.17-.17.13-.08.21-.17.38-.29.46-.17.13-.25.25-.29.38.17.34.17.71,0,1.09,0,.25,0,.5.08.76.04.21.13.38.25.55.25-.42.55-.84.88-1.3h.08c-.08.42-.17.8-.34,1.13-.08.13-.13.21-.21.29.08.55.34,1.09.63,1.64.08.21.21.46.34.63.38.76.8,1.51,1.26,2.23.04.13.13.25.25.38.17.29.34.67.5,1.01.04.13.08.21.13.34s.04.25,0,.38c0,.21-.04.38-.17.5-.21,0-.42.04-.59.08v.08s.04.04.08,0c0,.13,0,.21-.08.29-.34.08-.67.13-.97.08-.42-.13-.84-.21-1.26-.38-.42-.25-.8-.59-1.13-.97-.17-.21-.34-.42-.55-.59-.17-.13-.25-.29-.34-.5v-.17c-.04-.38-.04-.71,0-1.05l.04-.04c-.08-.13-.13-.25-.17-.42-.17-.13-.34-.34-.46-.55-.17-.13-.25-.29-.17-.59,0-.17,0-.38-.08-.63-.04-.17-.08-.38-.17-.59-.04-.29-.13-.59-.13-.92-.04,0-.04-.04-.04-.08-.08-.5-.08-1.05,0-1.6.17-.38.34-.84.42-1.3.25-.76.46-1.47.67-2.27.04-.08.08-.25.13-.42.04-.21.08-.42.17-.63s.13-.42.17-.63c.08-.38.21-.76.34-1.09.17-.13.38-.25.55-.34.13-.04.29-.13.46-.17.13,0,.25,0,.42.08.21-.04.42-.13.59-.29.25-.29.5-.59.8-.84.04-.08.04-.17.04-.29-.04-.42-.04-.88-.08-1.26v-1.72c.13-.42.34-.84.59-1.22-.13,0-.21.04-.21.13-.08.08-.17.13-.17.21-.25.29-.5.55-.76.84t-.04-.04c-.46.25-.8.59-1.05,1.01-.13.04-.17.08-.13.13v-.08c-.17.17-.29.34-.38.55-.04.04-.04.08-.04.17,0,.04-.04.08-.04.13,0,0-.04-.04-.04-.08-.08.04-.08.08-.04.17-.42.55-.71,1.18-.88,1.89h-.04c-.13.08-.21.21-.25.29t.04.04c.08-.04.17-.17.25-.34.13-.08.25-.25.42-.46s.34-.42.46-.71c.04,0,.08,0,.13-.04.38-.59.84-1.13,1.34-1.68v.04c.13-.17.25-.29.42-.46-.04.08-.08.17-.17.17-.08.17-.17.34-.29.5v-.04s-.04.08-.08.08c-.21.29-.38.59-.5.88-.08,0-.13.04-.13.04,0,.08,0,.13.08.13.04-.08.13-.21.21-.29v.08s-.04-.04-.04-.04c-.08.04-.08.13-.04.17-.08.04-.08.08-.08.13v.04c-.08,0-.13.04-.13.13v-.29c-.13.13-.17.25-.17.34.04.04.04.08.08.13-.04.04-.08.13-.08.21-.08.13-.13.25-.17.34t.08-.04s-.04.08-.08.08h-.04c-.04.17-.08.25-.17.34-.13.17-.21.29-.29.46,0,.13-.04.21-.17.21-.08.21-.21.46-.29.67-.08.08-.13.13-.17.17-.04.08-.08.17-.08.25-.55.88-1.01,1.76-1.47,2.65,0,.08-.04.13-.08.17-.29.63-.63,1.22-1.01,1.72v.04c-.34.42-.59.88-.8,1.3s-.34.8-.46,1.22c.04-.04.08-.08.08-.13.04,0,.04.04.04.08-.08,0-.13.04-.08.13-.08.04-.13.08-.08.13-.13.42-.21.8-.17,1.22-.08.34-.17.67-.21.97-.04.21-.04.42,0,.63-.04.08-.04.13-.04.17.13.17.13.38.04.55,0,.13,0,.21-.04.25-.13.34-.29.67-.46.97-.08.34-.13.63-.13.97-.08.21-.13.42-.21.59,0,.04.04.13.08.21-.08.04-.08.08,0,.13-.04.25,0,.46.13.63-.08.13-.08.25,0,.34,0,.13,0,.21.08.25-.08.13-.08.21,0,.25,0,.34-.17.59-.46.76t.04.04c-.5.25-1.01.29-1.55.13-.13,0-.21-.04-.29-.13-.34-.13-.63-.29-.88-.55-.13-.13-.29-.21-.42-.29-.25-.13-.5-.29-.71-.42-.08-.08-.17-.13-.29-.17-.25-.17-.46-.42-.63-.71-.29-.29-.38-.63-.29-1.01-.04-.08-.04-.17.04-.25.13-.21.21-.42.29-.67.08-.21.21-.34.38-.46.21-.21.34-.42.46-.76.17-.29.38-.59.55-.88.17-.13.29-.34.38-.59.13-.29.21-.59.29-.92.08-.17.13-.34.17-.55.04-.38.08-.76.13-1.13.04-.08.04-.17.08-.25.21-1.22.67-2.31,1.39-3.28.08-.08.13-.17.17-.25t.04.04s.04-.13.04-.17h.08l.04-.04s.13-.08.17-.17c-.08.13-.17.21-.29.25,0,.13-.04.25-.08.34-.17.25-.34.55-.46.8-.04.21-.08.38-.17.59.04.21.04.38,0,.59-.08.17-.08.34-.08.5t-.04-.04c-.08.08-.08.21-.04.29-.08.04-.13.13-.13.21-.08.21-.08.42,0,.59-.08.25-.08.46-.04.67l.08-.17c0,.08,0,.17.08.21.71-1.34,1.47-2.65,2.35-3.86.46-.63.88-1.26,1.3-1.89l.04-.04-.04-.04c.13-.13.21-.25.25-.38.21-.21.38-.42.59-.67.04-.04.04-.08.08-.17.76-.8,1.39-1.68,2.02-2.6.17-.34.34-.63.55-.97.08-.04.13-.13.13-.21.08-.13.21-.25.29-.38l-.04-.04c.08-.04.13-.08.17-.13,0,0-.04,0-.04-.04.13-.08.21-.21.25-.34t.08,0s0-.08-.04-.04c.08-.08.17-.17.25-.29q.04.08.08,0l.04-.08s-.04,0-.04-.04q0,.08-.04.08h-.04s.08-.04.08-.13v.04s0-.04.04-.13c0,.04.04.08.08.08v-.17q0,.08.08.04l.04-.04h-.04c.17-.17.34-.38.5-.63l.04-.04s.08-.04.08-.08c.71-.67,1.34-1.47,1.89-2.31h.04s.08-.04.08-.08c0,.08-.04.13-.04.17-.17.21-.25.38-.25.59-.04.17-.13.34-.17.5.13-.13.29-.29.38-.46.13-.17.25-.34.42-.5.34-.42.71-.8,1.13-1.13.25-.08.46-.17.76-.25.29.04.59.17.8.38.25-.13.55-.21.84-.29.04.08.13.17.25.17.25-.29.55-.63.76-.97-.13.04-.29.08-.38.08-.46.13-.88.17-1.26.21-.13.08-.25.13-.34.13-.34.08-.63.13-.92.17h-.08c-.42,0-.8,0-1.13-.04-.29.04-.5,0-.71-.17-.92-.67-1.81-1.39-2.69-2.06-.17-.04-.21-.17-.21-.34-.04-.17.04-.34.17-.5,0-.17.04-.29.21-.42v-.08c.08-.04.13-.04.13-.08h-.04c.17-.13.38-.29.55-.46.04-.13.13-.21.21-.29.04-.13.17-.21.34-.21.04-.08.13-.13.21-.04.08,0,.25-.04.42-.04.21,0,.46.04.71.04.21,0,.42.04.63.17.97.21,1.93.25,2.94.08.17-.08.34-.13.55-.17.34-.08.71-.21,1.09-.29.67-.17,1.34-.38,2.02-.67.42-.25.92-.5,1.39-.67.21-.17.38-.38.59-.59.13-.13.21-.25.17-.46,0-.08.04-.17.13-.34,0,0,.04-.04.04-.13-.08,0-.08-.08-.04-.17,0,0,0-.04.08-.08-.13,0-.17,0-.08-.08.17,0,.29-.13.34-.29-.08-.04-.08-.08-.08-.08.17-.04.29-.13.38-.29.17-.04.38-.08.63-.08v-.04c.21.04.46.08.76.08.63.17,1.26.38,1.89.71Zm-18.53,3.02c.38.34.63.71.88,1.13.17.29.25.59.34.92.17.46.25.97.25,1.51,0,.25.13.5.29.67-.04.17-.04.29-.04.38-.08.25-.17.46-.25.67-.21.25-.46.46-.71.5-.13.17-.25.29-.38.29-.21.13-.46.17-.67.17-.17.04-.29,0-.42-.08-.25,0-.5-.08-.71-.25-.13-.08-.25-.13-.42-.13-.25-.13-.46-.25-.67-.42-.17-.13-.29-.21-.42-.29-.21,0-.34-.08-.42-.21-.21-.08-.42-.08-.63,0-.21.13-.38.25-.5.38q-.08,0-.08-.04c-.38.08-.67.34-.84.63h-.13c.04-.34.08-.71.17-1.09.17-.59.13-1.22-.17-1.81-.08-.29-.21-.59-.29-.84-.21-.25-.34-.5-.34-.84.13-.25.21-.5.29-.76v-.13c.13-.08.21-.21.29-.38.08-.08.17-.17.34-.21.17-.13.34-.29.46-.5.17-.21.38-.42.63-.63.13-.08.29-.17.46-.21.38,0,.8.04,1.22.04,1.05.17,1.89.67,2.48,1.51Zm-1.6,15.46c-.17.21-.29.34-.38.5-.13.17-.21.38-.25.55.04-.17.13-.29.25-.42l.38-.63Zm6.39.71v.04c-.08.21-.21.42-.29.59-.08.17-.17.34-.25.46-.13.25-.21.46-.25.67.04.04.13.08.25.08v-.04q0-.08.08-.04c.08-.25.25-.46.46-.63.13-.08.25-.21.42-.34-.17-.25-.34-.5-.42-.8Zm5.59-10.38c-.5.46-.97.97-1.39,1.51-.13.17-.29.25-.5.25-.08.04-.13.13-.17.21-.25.55-.42,1.13-.46,1.72,0,.38.04.71.21,1.09.04.29.08.59.13.88.92-.71,1.81-1.47,2.69-2.23,0-.67.04-1.01.08-1.05,0-.17-.04-.38-.08-.59.04-.42,0-.84-.04-1.3-.13-.08-.21-.25-.21-.5.04-.04.13-.13.21-.25-.17.08-.34.17-.46.25Zm.46,5.17c-.59.46-1.22.92-1.85,1.34-.34.08-.5.29-.5.55s.08.42.17.5c0,.13,0,.17-.08.21t.04.08s.08-.08.17-.13v.46c-.08,0-.17,0-.25-.04-.17.46-.29.92-.29,1.39.8-.63,1.47-1.39,1.93-2.31.25-.5.42-1.05.55-1.68.04-.08.08-.25.13-.38Zm3.95-2.27c-.29.04-.55.08-.84.13v.59c0,.08-.04.17-.08.25,0,.29-.04.55-.04.76,0,.04-.04.04-.08.04h.04c0,.29-.04.59-.04.88,0,.08.04.13.08.17-.08.25-.13.5-.13.76.04-.04.08-.04.13-.04.04.17,0,.38-.08.55-.04.13-.13.29-.21.42-.17,0-.21.13-.21.29-.08.04-.13.08-.13.13-.17.17-.29.34-.34.46.08.08.21.17.38.17.55.34,1.05.67,1.6,1.09.25.21.46.42.59.76.08.25,0,.5-.17.67-.08.13-.04.25.08.34.08.21.13.38.13.59,0-.08.04-.17.13-.25.08.08.08.13.13.21-.04.08-.13.13-.21.08.08.42.04.84-.04,1.18-.34.34-.67.5-1.05.55-.42.08-.76.25-1.05.46-.21.17-.38.25-.5.29-.38.21-.63.46-.8.76,0,.08.04.08.13.04.21.21.46.42.76.55.63.34,1.22.76,1.76,1.22.13.04.25.17.38.34.08.13.21.25.34.42,0,.04-.04.04-.08.04-.08.25-.21.42-.38.55-.13.04-.17.08-.17.17-.04.13-.13.21-.21.21-.13.04-.21.04-.34.04-.29.17-.55.29-.8.46-.13,0-.29-.04-.38-.17-.25-.08-.42-.08-.59,0-.08,0-.13,0-.17.04-.17.08-.34.17-.5.21v-.04c-.17.13-.29.34-.38.5-.08.13-.13.17-.17.13h.04c-.08.04-.08.08-.04.04t.04.04c-.08.04-.13.08-.13.13-.08,0-.13,0-.13-.04v.13s-.04.04-.08.04c-.04.04-.08.04-.08.08-.08.04-.13.04-.17.04h-.04c-.17.13-.29.25-.42.34v-.17c-.08.08-.21.13-.29.21s-.13.21-.08.34h-.17c-.08.08-.13.08-.13,0-.08.08-.08.17,0,.25q-.08,0-.08-.08c-.04.08-.04.13.04.13.08-.04.25-.08.42-.13.13,0,.25-.04.38-.17.76-.13,1.47-.34,2.23-.63.5-.08,1.05-.04,1.6.08v-.25c0-.08.04-.17.08-.29.04.04.13.08.17.13.08-.08.13-.21.13-.34,0,.04,0,.08.04.08l.13-.13c.13,0,.21-.08.21-.29,0,.04.04.08.04.08.08.08.13.04.17-.08,0,.04.04.08.04.08.04,0,.08,0,.13-.08h.04c.08.13.13.13.21,0,.04-.08.08-.13.13-.21h.29c.13-.08.25-.17.29-.34.04,0,.13,0,.21-.04.08-.21.25-.42.46-.63,0-.25,0-.55.04-.8.08-.21.13-.42.21-.59,0-.21,0-.38-.04-.59,0-.63-.04-1.3-.04-2.02,0-.21-.04-.5-.08-.76,0-.13-.04-.25-.08-.38v-1.64c-.08-.13-.08-.21-.04-.34-.04-.25-.08-.42-.04-.59,0-.13.04-.21.04-.21.08-.38.17-.8.17-1.18-.04-.71-.04-1.26,0-1.64.08-.38.13-.59.13-.59.04-.21.08-.42.08-.67v-1.39c-.55-.63-1.13-1.22-1.68-1.85-.29,0-.55,0-.8-.08Z" style="fill:#866607;"/></g></svg>